# xmcd CD database file
#
# Track frame offsets:
#	150
#	36770
#	91465
#	117335
#	153485
#	192865
#	221302
#	265388
#
# Disc length: 4175 seconds
#
# Revision: 0
# Processed by: cddbd v1.5.2PL0 Copyright (c) Steve Scherf et al.
# Submitted via: CDex 1.51
#
DISCID=6a104d08
DTITLE=Charlie Kohlhase - Dancing On My Bedpost
DYEAR=1998
DGENRE=Jazz
TTITLE0=One Second Please
TTITLE1=Dancing On My Bedpost
TTITLE2=The International Wingo Conspiracy
TTITLE3=Julius
TTITLE4=Lovebucket's Laundryland
TTITLE5=Pannonica/Cambridge Street
TTITLE6=Mirrors
TTITLE7=Pollo Con Rollo
EXTD=YEAR: 1998
EXTT0=
EXTT1=
EXTT2=
EXTT3=
EXTT4=
EXTT5=
EXTT6=
EXTT7=
PLAYORDER=
